<svg width="1584" height="396" viewBox="0 0 1584 396" fill="none" xmlns="http://www.w3.org/2000/svg">
<rect width="1584" height="396" fill="#F5F5F5"/>
<g id="Awesome banner" clip-path="url(#clip0_0_1)">
<rect width="1584" height="396" fill="url(#paint0_linear_0_1)"/>
<ellipse id="Ellipse 2" cx="323" cy="64" rx="285" ry="288" fill="url(#paint1_linear_0_1)" fill-opacity="0.1"/>
<g id="copyright">
<path d="M75.95 334.52L72.30 334.52L72.30 311.16L77.20 311.16L83.70 330.04Q83.60 329.02 83.50 327.62Q83.41 326.23 83.33 324.79Q83.25 323.35 83.25 322.23L83.25 311.16L86.90 311.16L86.90 334.52L82 334.52L75.57 315.64Q75.63 316.57 75.73 317.88Q75.82 319.19 75.89 320.57Q75.95 321.94 75.95 323.10L75.95 334.52M98.80 334.84Q96.46 334.84 94.67 333.96Q92.88 333.08 91.89 331.53Q90.90 329.98 90.90 327.93Q90.90 325.78 92.13 324.18Q93.36 322.58 95.34 322.17L95.34 322.10Q93.65 321.75 92.61 320.38Q91.57 319 91.57 317.11Q91.57 315.26 92.48 313.85Q93.39 312.44 95.02 311.64Q96.66 310.84 98.80 310.84Q100.94 310.84 102.59 311.64Q104.24 312.44 105.15 313.85Q106.06 315.26 106.06 317.11Q106.06 319 105.01 320.38Q103.95 321.75 102.26 322.10L102.26 322.17Q104.24 322.58 105.47 324.18Q106.70 325.78 106.70 327.93Q106.70 329.98 105.71 331.53Q104.72 333.08 102.93 333.96Q101.14 334.84 98.80 334.84M98.80 320.73Q100.30 320.73 101.23 319.82Q102.16 318.90 102.16 317.46Q102.16 315.99 101.23 315.08Q100.30 314.17 98.80 314.17Q97.30 314.17 96.37 315.08Q95.44 315.99 95.44 317.46Q95.44 318.90 96.37 319.82Q97.30 320.73 98.80 320.73M98.80 331.45Q100.56 331.45 101.68 330.42Q102.80 329.40 102.80 327.74Q102.80 326.04 101.68 325Q100.56 323.96 98.80 323.96Q97.04 323.96 95.92 325Q94.80 326.04 94.80 327.74Q94.80 329.40 95.92 330.42Q97.04 331.45 98.80 331.45M114.35 334.52L110.70 334.52L110.70 311.16L115.60 311.16L122.10 330.04Q122 329.02 121.90 327.62Q121.81 326.23 121.73 324.79Q121.65 323.35 121.65 322.23L121.65 311.16L125.30 311.16L125.30 334.52L120.40 334.52L113.97 315.64Q114.03 316.57 114.13 317.88Q114.22 319.19 114.29 320.57Q114.35 321.94 114.35 323.10" fill="white" fill-opacity="0.9"/>
<path d="M161.48 325.24L151.24 325.24L151.24 322.68L161.48 322.68" fill="white" fill-opacity="0.9"/>
<path d="M195.02 334.84Q191.82 334.84 189.96 333.05Q188.11 331.26 188.11 328.12L188.11 317.56Q188.11 314.42 189.96 312.63Q191.82 310.84 195.02 310.84Q198.15 310.84 200.01 312.65Q201.87 314.46 201.87 317.56L198.99 317.56Q198.99 315.58 197.95 314.50Q196.91 313.43 195.02 313.43Q193.13 313.43 192.06 314.50Q190.99 315.58 190.99 317.56L190.99 328.12Q190.99 330.10 192.06 331.18Q193.13 332.25 195.02 332.25Q196.91 332.25 197.95 331.18Q198.99 330.10 198.99 328.12L201.87 328.12Q201.87 331.22 200.01 333.03Q198.15 334.84 195.02 334.84" fill="white" fill-opacity="0.9"/>
<path d="M213.96 334.84Q210.83 334.84 209 333.02Q207.18 331.19 207.18 327.80L207.18 317.88Q207.18 314.49 209 312.66Q210.83 310.84 213.96 310.84Q217.10 310.84 218.92 312.66Q220.75 314.49 220.75 317.85L220.75 327.80Q220.75 331.19 218.92 333.02Q217.10 334.84 213.96 334.84M213.96 332.25Q215.85 332.25 216.86 331.18Q217.87 330.10 217.87 328.12L217.87 317.56Q217.87 315.58 216.86 314.50Q215.85 313.43 213.96 313.43Q212.11 313.43 211.08 314.50Q210.06 315.58 210.06 317.56L210.06 328.12Q210.06 330.10 211.08 331.18Q212.11 332.25 213.96 332.25" fill="white" fill-opacity="0.9"/>
<path d="M228.65 334.52L225.87 334.52L225.87 311.16L230.12 311.16L233.10 321.27L236.20 311.16L240.46 311.16L240.46 334.52L237.67 334.52L237.67 323.48Q237.67 321.91 237.72 319.88Q237.77 317.85 237.87 315.77Q237.96 313.69 238.09 312.02L234.31 324.09L231.82 324.09L228.20 312.31Q228.46 314.68 228.55 317.50Q228.65 320.31 228.65 323.48" fill="white" fill-opacity="0.9"/>
<path d="M247.85 334.52L245.07 334.52L245.07 311.16L249.32 311.16L252.30 321.27L255.40 311.16L259.66 311.16L259.66 334.52L256.87 334.52L256.87 323.48Q256.87 321.91 256.92 319.88Q256.97 317.85 257.07 315.77Q257.16 313.69 257.29 312.02L253.51 324.09L251.02 324.09L247.40 312.31Q247.66 314.68 247.75 317.50Q247.85 320.31 247.85 323.48" fill="white" fill-opacity="0.9"/>
<path d="M271.56 334.84Q268.30 334.84 266.57 333.03Q264.84 331.22 264.84 328.12L264.84 311.16L267.72 311.16L267.72 328.12Q267.72 330.04 268.67 331.16Q269.61 332.28 271.56 332.28Q273.48 332.28 274.44 331.16Q275.40 330.04 275.40 328.12L275.40 311.16L278.28 311.16L278.28 328.12Q278.28 331.26 276.57 333.05Q274.86 334.84 271.56 334.84" fill="white" fill-opacity="0.9"/>
<path d="M286.83 334.52L284.04 334.52L284.04 311.16L287.88 311.16L295.02 331.16Q294.95 330.36 294.87 329.19Q294.79 328.02 294.75 326.73Q294.70 325.43 294.70 324.28L294.70 311.16L297.48 311.16L297.48 334.52L293.64 334.52L286.54 314.52Q286.60 315.29 286.67 316.46Q286.73 317.62 286.78 318.92Q286.83 320.22 286.83 321.40" fill="white" fill-opacity="0.9"/>
<path d="M316.20 334.52L303.72 334.52L303.72 331.90L308.49 331.90L308.49 313.78L303.72 313.78L303.72 311.16L316.20 311.16L316.20 313.78L311.43 313.78L311.43 331.90L316.20 331.90" fill="white" fill-opacity="0.9"/>
<path d="M330.60 334.52L327.72 334.52L327.72 313.78L321.32 313.78L321.32 311.16L337 311.16L337 313.78L330.60 313.78" fill="white" fill-opacity="0.9"/>
<path d="M349.80 334.52L346.92 334.52L346.92 325.78L339.88 311.16L342.95 311.16L347.50 320.76Q347.88 321.56 348.11 322.12Q348.33 322.68 348.39 322.94Q348.46 322.68 348.70 322.12Q348.94 321.56 349.32 320.76L353.87 311.16L356.84 311.16L349.80 325.78" fill="white" fill-opacity="0.9"/>
<path d="M382.83 334.52L380.04 334.52L380.04 311.16L383.88 311.16L391.02 331.16Q390.95 330.36 390.87 329.19Q390.79 328.02 390.75 326.73Q390.70 325.43 390.70 324.28L390.70 311.16L393.48 311.16L393.48 334.52L389.64 334.52L382.54 314.52Q382.60 315.29 382.67 316.46Q382.73 317.62 382.78 318.92Q382.83 320.22 382.83 321.40" fill="white" fill-opacity="0.9"/>
<path d="M405.96 334.84Q402.83 334.84 401 333.02Q399.18 331.19 399.18 327.80L399.18 317.88Q399.18 314.49 401 312.66Q402.83 310.84 405.96 310.84Q409.10 310.84 410.92 312.66Q412.75 314.49 412.75 317.85L412.75 327.80Q412.75 331.19 410.92 333.02Q409.10 334.84 405.96 334.84M405.96 332.25Q407.85 332.25 408.86 331.18Q409.87 330.10 409.87 328.12L409.87 317.56Q409.87 315.58 408.86 314.50Q407.85 313.43 405.96 313.43Q404.11 313.43 403.08 314.50Q402.06 315.58 402.06 317.56L402.06 328.12Q402.06 330.10 403.08 331.18Q404.11 332.25 405.96 332.25" fill="white" fill-opacity="0.9"/>
<path d="M424.55 334.52L418.51 334.52L418.51 311.16L424.55 311.16Q426.83 311.16 428.47 312.02Q430.12 312.89 431.03 314.46Q431.95 316.02 431.95 318.17L431.95 327.48Q431.95 329.62 431.03 331.21Q430.12 332.79 428.47 333.66Q426.83 334.52 424.55 334.52M421.39 313.72L421.39 331.96L424.55 331.96Q426.67 331.96 427.87 330.78Q429.07 329.59 429.07 327.48L429.07 318.17Q429.07 316.09 427.87 314.90Q426.67 313.72 424.55 313.72" fill="white" fill-opacity="0.9"/>
<path d="M451.40 334.52L437.96 334.52L437.96 311.16L451.40 311.16L451.40 313.78L440.81 313.78L440.81 321.02L450.28 321.02L450.28 323.58L440.81 323.58L440.81 331.90L451.40 331.90" fill="white" fill-opacity="0.9"/>
<path d="M463.69 334.84Q460.30 334.84 458.28 333.05Q456.27 331.26 456.27 328.12L459.15 328.12Q459.15 330.07 460.39 331.18Q461.64 332.28 463.69 332.28Q465.67 332.28 466.86 331.13Q468.04 329.98 468.04 328.12Q468.04 326.71 467.29 325.67Q466.54 324.63 465.13 324.25L461.58 323.26Q459.37 322.62 458.11 320.97Q456.84 319.32 456.84 317.08Q456.84 315.22 457.67 313.82Q458.51 312.41 460.01 311.62Q461.51 310.84 463.47 310.84Q465.45 310.84 466.97 311.62Q468.49 312.41 469.35 313.80Q470.22 315.19 470.22 317.02L467.34 317.02Q467.34 315.42 466.25 314.41Q465.16 313.40 463.47 313.40Q461.77 313.40 460.71 314.41Q459.66 315.42 459.66 317.02Q459.66 318.30 460.35 319.21Q461.03 320.12 462.28 320.47L465.93 321.50Q468.27 322.14 469.56 323.91Q470.86 325.69 470.86 328.12Q470.86 331.19 468.91 333.02Q466.95 334.84 463.69 334.84" fill="white" fill-opacity="0.9"/>
</g>
<path d="M78.66 197.64L75.71 197.64L71.20 180.12L73.41 180.12L76.41 192.05Q76.72 193.30 76.92 194.35Q77.13 195.41 77.22 195.96Q77.32 195.41 77.55 194.34Q77.78 193.27 78.09 192.02L80.97 180.12L83.20 180.12" fill="white" fill-opacity="0.7"/>
<path d="M92.68 197.64L90.52 197.64L90.52 182.09L85.72 182.09L85.72 180.12L97.48 180.12L97.48 182.09L92.68 182.09" fill="white" fill-opacity="0.7"/>
<path d="M111.28 197.64L101.20 197.64L101.20 180.12L111.28 180.12L111.28 182.09L103.34 182.09L103.34 187.51L110.44 187.51L110.44 189.43L103.34 189.43L103.34 195.67L111.28 195.67" fill="white" fill-opacity="0.7"/>
<path d="M116.56 197.64L114.16 197.64L119.20 188.76L114.42 180.12L116.92 180.12L119.63 185.30Q119.85 185.71 120.08 186.18Q120.30 186.65 120.45 186.91Q120.57 186.65 120.80 186.18Q121.02 185.71 121.24 185.30LNaN 180.12L126.38 180.12L121.60 188.62L126.64 197.64L124.17 197.64L121.17 192.07Q120.95 191.66 120.72 191.20Q120.50 190.73 120.38 190.44Q120.26 190.73 120.03 191.18Q119.80 191.64 119.58 192.05" fill="white" fill-opacity="0.7"/>
<path d="M149.30 197.88Q146.75 197.88 145.24 196.54Q143.73 195.19 143.73 192.84L145.89 192.84Q145.89 194.30 146.82 195.13Q147.76 195.96 149.30 195.96Q150.78 195.96 151.67 195.10Q152.56 194.23 152.56 192.84Q152.56 191.78 152 191Q151.43 190.22 150.38 189.94L147.71 189.19Q146.06 188.71 145.11 187.48Q144.16 186.24 144.16 184.56Q144.16 183.17 144.78 182.11Q145.41 181.06 146.54 180.47Q147.66 179.88 149.13 179.88Q150.62 179.88 151.76 180.47Q152.90 181.06 153.54 182.10Q154.19 183.14 154.19 184.51L152.03 184.51Q152.03 183.31 151.22 182.56Q150.40 181.80 149.13 181.80Q147.86 181.80 147.06 182.56Q146.27 183.31 146.27 184.51Q146.27 185.47 146.79 186.16Q147.30 186.84 148.24 187.10L150.98 187.87Q152.73 188.35 153.70 189.68Q154.67 191.02 154.67 192.84Q154.67 195.14 153.21 196.51Q151.74 197.88 149.30 197.88" fill="white" fill-opacity="0.7"/>
<path d="M163.58 197.88Q161.30 197.88 159.93 196.52Q158.56 195.17 158.56 192.84L158.56 184.44L160.72 184.44L160.72 192.84Q160.72 194.28 161.49 195.13Q162.26 195.98 163.58 195.98Q164.92 195.98 165.70 195.13Q166.48 194.28 166.48 192.84L166.48 184.44L168.64 184.44L168.64 192.84Q168.64 195.17 167.25 196.52Q165.86 197.88 163.58 197.88" fill="white" fill-opacity="0.7"/>
<path d="M178.77 197.88Q177.28 197.88 176.32 197.15Q175.36 196.42 175.19 195.12L175.17 195.12L175.17 197.64L173.01 197.64L173.01 180.12L175.17 180.12L175.17 183.96L175.12 186.96L175.14 186.96Q175.34 185.69 176.31 184.94Q177.28 184.20 178.77 184.20Q180.76 184.20 181.94 185.52Q183.11 186.84 183.11 189.12L183.11 192.98Q183.11 195.24 181.94 196.56Q180.76 197.88 178.77 197.88M178.05 196.01Q179.42 196.01 180.18 195.29Q180.95 194.57 180.95 192.96L180.95 189.12Q180.95 187.49 180.18 186.78Q179.42 186.07 178.05 186.07Q176.73 186.07 175.95 186.91Q175.17 187.75 175.17 189.24L175.17 192.84Q175.17 194.33 175.95 195.17Q176.73 196.01 178.05 196.01" fill="white" fill-opacity="0.7"/>
<path d="M192.93 197.83L191.87 197.83Q189.66 197.83 188.45 196.84Q187.24 195.84 187.24 194.02L189.40 194.02Q189.40 194.93 190.05 195.44Q190.70 195.96 191.87 195.96L192.93 195.96Q194.13 195.96 194.79 195.43Q195.45 194.90 195.45 193.94Q195.45 192.24 193.89 192.02L190.24 191.50Q188.90 191.30 188.15 190.38Q187.41 189.46 187.41 187.94Q187.41 186.22 188.60 185.23Q189.78 184.25 191.87 184.25L192.93 184.25Q194.85 184.25 196.06 185.20Q197.27 186.14 197.37 187.68L195.18 187.68Q195.14 186.98 194.52 186.53Q193.91 186.07 192.93 186.07L191.87 186.07Q190.77 186.07 190.14 186.58Q189.52 187.08 189.52 187.94Q189.52 189.34 190.79 189.53L194.20 190.01Q197.56 190.49 197.56 193.94Q197.56 195.79 196.35 196.81Q195.14 197.83 192.93 197.83" fill="white" fill-opacity="0.7"/>
<path d="M206.99 197.88Q204.59 197.88 203.15 196.54Q201.71 195.19 201.71 192.84L201.71 189.24Q201.71 186.89 203.15 185.54Q204.59 184.20 206.99 184.20Q209.27 184.20 210.68 185.42Q212.08 186.65 212.15 188.76L209.99 188.76Q209.92 187.49 209.13 186.80Q208.34 186.12 206.99 186.12Q205.58 186.12 204.72 186.92Q203.87 187.73 203.87 189.22L203.87 192.84Q203.87 194.33 204.72 195.14Q205.58 195.96 206.99 195.96Q208.34 195.96 209.13 195.26Q209.92 194.57 209.99 193.32L212.15 193.32Q212.08 195.43 210.68 196.66Q209.27 197.88 206.99 197.88" fill="white" fill-opacity="0.7"/>
<path d="M218.85 197.64L216.69 197.64L216.69 184.44L218.85 184.44L218.85 186.96L218.90 186.96Q219.06 185.69 219.98 184.94Q220.89 184.20 222.42 184.20Q224.49 184.20 225.60 185.44Q226.72 186.67 226.72 188.95L226.72 190.08L224.56 190.08L224.56 188.95Q224.56 186.07 221.75 186.07Q220.34 186.07 219.59 186.89Q218.85 187.70 218.85 189.24" fill="white" fill-opacity="0.7"/>
<path d="M241.72 197.64L230.44 197.64L230.44 195.67L235.12 195.67L235.12 186.41L230.92 186.41L230.92 184.44L237.28 184.44L237.28 195.67L241.72 195.67L241.72 197.64M235.96 182.06Q235.17 182.06 234.71 181.66Q234.26 181.25 234.26 180.55Q234.26 179.83 234.71 179.41Q235.17 178.99 235.96 178.99Q236.75 178.99 237.21 179.41Q237.66 179.83 237.66 180.55Q237.66 181.25 237.21 181.66Q236.75 182.06 235.96 182.06" fill="white" fill-opacity="0.7"/>
<path d="M247.17 201.96L245.01 201.96L245.01 184.44L247.17 184.44L247.17 186.96L247.19 186.96Q247.36 185.66 248.32 184.93Q249.28 184.20 250.77 184.20Q252.76 184.20 253.94 185.51Q255.11 186.82 255.11 189.10L255.11 192.96Q255.11 195.24 253.94 196.56Q252.76 197.88 250.77 197.88Q249.28 197.88 248.32 197.14Q247.36 196.39 247.19 195.12L247.12 195.12L247.17 198.12L247.17 201.96M250.05 196.01Q251.42 196.01 252.18 195.29Q252.95 194.57 252.95 192.96L252.95 189.12Q252.95 187.49 252.18 186.78Q251.42 186.07 250.05 186.07Q248.73 186.07 247.95 186.91Q247.17 187.75 247.17 189.24L247.17 192.84Q247.17 194.33 247.95 195.17Q248.73 196.01 250.05 196.01" fill="white" fill-opacity="0.7"/>
<path d="M269.56 197.64L265.72 197.64Q264.09 197.64 263.10 196.69Q262.12 195.74 262.12 194.16L262.12 186.41L258.33 186.41L258.33 184.44L262.12 184.44L262.12 180.72L264.28 180.72L264.28 184.44L269.68 184.44L269.68 186.41L264.28 186.41L264.28 194.16Q264.28 194.83 264.68 195.25Q265.07 195.67 265.72 195.67L269.56 195.67" fill="white" fill-opacity="0.7"/>
<path d="M284.92 197.64L273.64 197.64L273.64 195.67L278.32 195.67L278.32 186.41L274.12 186.41L274.12 184.44L280.48 184.44L280.48 195.67L284.92 195.67L284.92 197.64M279.16 182.06Q278.37 182.06 277.91 181.66Q277.46 181.25 277.46 180.55Q277.46 179.83 277.91 179.41Q278.37 178.99 279.16 178.99Q279.95 178.99 280.41 179.41Q280.86 179.83 280.86 180.55Q280.86 181.25 280.41 181.66Q279.95 182.06 279.16 182.06" fill="white" fill-opacity="0.7"/>
<path d="M293.20 197.83Q290.82 197.83 289.42 196.44Q288.02 195.05 288.02 192.55L288.02 189.53Q288.02 187.01 289.41 185.63Q290.80 184.25 293.20 184.25Q295.60 184.25 296.99 185.63Q298.38 187.01 298.38 189.53L298.38 192.55Q298.38 195.05 296.98 196.44Q295.58 197.83 293.20 197.83M293.20 195.91Q294.62 195.91 295.42 195.12Q296.22 194.33 296.22 192.79L296.22 189.29Q296.22 187.75 295.42 186.96Q294.62 186.17 293.20 186.17Q291.81 186.17 290.99 186.96Q290.18 187.75 290.18 189.29L290.18 192.79Q290.18 194.33 290.99 195.12Q291.81 195.91 293.20 195.91" fill="white" fill-opacity="0.7"/>
<path d="M304.77 197.64L302.61 197.64L302.61 184.44L304.77 184.44L304.77 186.96L304.79 186.96Q304.96 185.64 305.87 184.92Q306.78 184.20 308.30 184.20Q310.29 184.20 311.46 185.42Q312.64 186.65 312.64 188.76L312.64 197.64L310.48 197.64L310.48 189.14Q310.48 187.63 309.72 186.83Q308.97 186.02 307.67 186.02Q306.33 186.02 305.55 186.86Q304.77 187.70 304.77 189.24" fill="white" fill-opacity="0.7"/>
<path d="M322.53 197.83L321.47 197.83Q319.26 197.83 318.05 196.84Q316.84 195.84 316.84 194.02L319 194.02Q319 194.93 319.65 195.44Q320.30 195.96 321.47 195.96L322.53 195.96Q323.73 195.96 324.39 195.43Q325.05 194.90 325.05 193.94Q325.05 192.24 323.49 192.02L319.84 191.50Q318.50 191.30 317.75 190.38Q317.01 189.46 317.01 187.94Q317.01 186.22 318.20 185.23Q319.38 184.25 321.47 184.25L322.53 184.25Q324.45 184.25 325.66 185.20Q326.87 186.14 326.97 187.68L324.78 187.68Q324.74 186.98 324.12 186.53Q323.51 186.07 322.53 186.07L321.47 186.07Q320.37 186.07 319.74 186.58Q319.12 187.08 319.12 187.94Q319.12 189.34 320.39 189.53L323.80 190.01Q327.16 190.49 327.16 193.94Q327.16 195.79 325.95 196.81Q324.74 197.83 322.53 197.83" fill="white" fill-opacity="0.7"/>
<path d="M347.97 197.64L345.83 197.64L345.83 180.12L351.23 180.12Q352.79 180.12 353.97 180.76Q355.14 181.39 355.79 182.52Q356.44 183.65 356.44 185.16Q356.44 186.94 355.53 188.21Q354.62 189.48 353.10 189.98L356.68 197.64L354.30 197.64L350.87 190.20L347.97 190.20L347.97 197.64M347.97 182.06L347.97 188.26L351.23 188.26Q352.58 188.26 353.39 187.40Q354.21 186.55 354.21 185.16Q354.21 183.74 353.39 182.90Q352.58 182.06 351.23 182.06" fill="white" fill-opacity="0.7"/>
<path d="M370.48 197.64L360.40 197.64L360.40 180.12L370.48 180.12L370.48 182.09L362.54 182.09L362.54 187.51L369.64 187.51L369.64 189.43L362.54 189.43L362.54 195.67L370.48 195.67" fill="white" fill-opacity="0.7"/>
<path d="M379.70 197.88Q377.15 197.88 375.64 196.54Q374.13 195.19 374.13 192.84L376.29 192.84Q376.29 194.30 377.22 195.13Q378.16 195.96 379.70 195.96Q381.18 195.96 382.07 195.10Q382.96 194.23 382.96 192.84Q382.96 191.78 382.40 191Q381.83 190.22 380.78 189.94L378.11 189.19Q376.46 188.71 375.51 187.48Q374.56 186.24 374.56 184.56Q374.56 183.17 375.18 182.11Q375.81 181.06 376.94 180.47Q378.06 179.88 379.53 179.88Q381.02 179.88 382.16 180.47Q383.30 181.06 383.94 182.10Q384.59 183.14 384.59 184.51L382.43 184.51Q382.43 183.31 381.62 182.56Q380.80 181.80 379.53 181.80Q378.26 181.80 377.46 182.56Q376.67 183.31 376.67 184.51Q376.67 185.47 377.19 186.16Q377.70 186.84 378.64 187.10L381.38 187.87Q383.13 188.35 384.10 189.68Q385.07 191.02 385.07 192.84Q385.07 195.14 383.61 196.51Q382.14 197.88 379.70 197.88" fill="white" fill-opacity="0.7"/>
<path d="M395.08 197.64L392.92 197.64L392.92 182.09L388.12 182.09L388.12 180.12L399.88 180.12L399.88 182.09L395.08 182.09" fill="white" fill-opacity="0.7"/>
<path d="M419.01 197.64L416.80 197.64L421.36 180.12L424.26 180.12L428.80 197.64L426.62 197.64L425.46 192.98L420.16 192.98L419.01 197.64M421.94 185.74L420.59 191.16L425.01 191.16L423.66 185.76Q423.28 184.22 423.06 183.19Q422.85 182.16 422.80 181.85Q422.75 182.16 422.54 183.19Q422.32 184.22 421.94 185.74" fill="white" fill-opacity="0.7"/>
<path d="M434.37 197.64L432.21 197.64L432.21 180.12L437.85 180.12Q440.30 180.12 441.75 181.52Q443.20 182.93 443.20 185.28Q443.20 187.63 441.75 189.04Q440.30 190.44 437.85 190.44L434.37 190.44L434.37 197.64M434.37 182.06L434.37 188.50L437.85 188.50Q439.26 188.50 440.12 187.62Q440.97 186.74 440.97 185.28Q440.97 183.79 440.12 182.93Q439.26 182.06 437.85 182.06" fill="white" fill-opacity="0.7"/>
<path d="M456.28 197.64L446.92 197.64L446.92 195.67L450.50 195.67L450.50 182.09L446.92 182.09L446.92 180.12L456.28 180.12L456.28 182.09L452.70 182.09L452.70 195.67L456.28 195.67" fill="white" fill-opacity="0.7"/>
<path d="M479.94 197.64L475.41 197.64L475.41 180.12L479.94 180.12Q481.65 180.12 482.88 180.77Q484.12 181.42 484.80 182.59Q485.49 183.77 485.49 185.38L485.49 192.36Q485.49 193.97 484.80 195.16Q484.12 196.34 482.88 196.99Q481.65 197.64 479.94 197.64M477.57 182.04L477.57 195.72L479.94 195.72Q481.53 195.72 482.43 194.83Q483.33 193.94 483.33 192.36L483.33 185.38Q483.33 183.82 482.43 182.93Q481.53 182.04 479.94 182.04" fill="white" fill-opacity="0.7"/>
<path d="M494.80 197.83Q492.42 197.83 491.02 196.44Q489.62 195.05 489.62 192.55L489.62 189.53Q489.62 187.01 491.01 185.63Q492.40 184.25 494.80 184.25Q497.20 184.25 498.59 185.63Q499.98 187.01 499.98 189.53L499.98 192.55Q499.98 195.05 498.58 196.44Q497.18 197.83 494.80 197.83M494.80 195.91Q496.22 195.91 497.02 195.12Q497.82 194.33 497.82 192.79L497.82 189.29Q497.82 187.75 497.02 186.96Q496.22 186.17 494.80 186.17Q493.41 186.17 492.59 186.96Q491.78 187.75 491.78 189.29L491.78 192.79Q491.78 194.33 492.59 195.12Q493.41 195.91 494.80 195.91" fill="white" fill-opacity="0.7"/>
<path d="M509.39 197.88Q506.99 197.88 505.55 196.54Q504.11 195.19 504.11 192.84L504.11 189.24Q504.11 186.89 505.55 185.54Q506.99 184.20 509.39 184.20Q511.67 184.20 513.08 185.42Q514.48 186.65 514.55 188.76L512.39 188.76Q512.32 187.49 511.53 186.80Q510.74 186.12 509.39 186.12Q507.98 186.12 507.12 186.92Q506.27 187.73 506.27 189.22L506.27 192.84Q506.27 194.33 507.12 195.14Q507.98 195.96 509.39 195.96Q510.74 195.96 511.53 195.26Q512.32 194.57 512.39 193.32L514.55 193.32Q514.48 195.43 513.08 196.66Q511.67 197.88 509.39 197.88" fill="white" fill-opacity="0.7"/>
<path d="M523.58 197.88Q521.30 197.88 519.93 196.52Q518.56 195.17 518.56 192.84L518.56 184.44L520.72 184.44L520.72 192.84Q520.72 194.28 521.49 195.13Q522.26 195.98 523.58 195.98Q524.92 195.98 525.70 195.13Q526.48 194.28 526.48 192.84L526.48 184.44L528.64 184.44L528.64 192.84Q528.64 195.17 527.25 196.52Q525.86 197.88 523.58 197.88" fill="white" fill-opacity="0.7"/>
<path d="M534.26 197.64L532.24 197.64L532.24 184.44L534.11 184.44L534.11 186.19L534.16 186.19Q534.28 185.30 534.87 184.75Q535.46 184.20 536.37 184.20Q537.23 184.20 537.83 184.70Q538.43 185.21 538.70 186.07L538.72 186.07Q538.89 185.21 539.48 184.70Q540.06 184.20 540.98 184.20Q542.25 184.20 543 185.15Q543.76 186.10 543.76 187.61L543.76 197.64L541.74 197.64L541.74 187.58Q541.74 186.79 541.36 186.32Q540.98 185.86 540.30 185.86Q539.66 185.86 539.27 186.31Q538.89 186.77 538.89 187.56L538.89 197.64L537.11 197.64L537.11 187.58Q537.11 186.79 536.73 186.32Q536.34 185.86 535.70 185.86Q535.02 185.86 534.64 186.31Q534.26 186.77 534.26 187.56" fill="white" fill-opacity="0.7"/>
<path d="M552.40 197.88Q550.07 197.88 548.64 196.48Q547.22 195.07 547.22 192.60L547.22 189.48Q547.22 187.01 548.64 185.60Q550.07 184.20 552.40 184.20Q553.96 184.20 555.12 184.82Q556.29 185.45 556.94 186.58Q557.58 187.70 557.58 189.24L557.58 191.59L549.33 191.59L549.33 192.84Q549.33 194.30 550.17 195.16Q551.01 196.01 552.40 196.01Q553.60 196.01 554.38 195.54Q555.16 195.07 555.33 194.28L557.49 194.28Q557.27 195.94 555.88 196.91Q554.49 197.88 552.40 197.88M549.33 189.24L549.33 189.91L555.47 189.91L555.47 189.24Q555.47 187.68 554.67 186.83Q553.86 185.98 552.40 185.98Q550.94 185.98 550.13 186.83Q549.33 187.68 549.33 189.24" fill="white" fill-opacity="0.7"/>
<path d="M563.97 197.64L561.81 197.64L561.81 184.44L563.97 184.44L563.97 186.96L563.99 186.96Q564.16 185.64 565.07 184.92Q565.98 184.20 567.50 184.20Q569.49 184.20 570.66 185.42Q571.84 186.65 571.84 188.76L571.84 197.64L569.68 197.64L569.68 189.14Q569.68 187.63 568.92 186.83Q568.17 186.02 566.87 186.02Q565.53 186.02 564.75 186.86Q563.97 187.70 563.97 189.24" fill="white" fill-opacity="0.7"/>
<path d="M586.36 197.64L582.52 197.64Q580.89 197.64 579.90 196.69Q578.92 195.74 578.92 194.16L578.92 186.41L575.13 186.41L575.13 184.44L578.92 184.44L578.92 180.72L581.08 180.72L581.08 184.44L586.48 184.44L586.48 186.41L581.08 186.41L581.08 194.16Q581.08 194.83 581.48 195.25Q581.87 195.67 582.52 195.67L586.36 195.67" fill="white" fill-opacity="0.7"/>
<path d="M594.45 197.88Q592.41 197.88 591.21 196.74Q590.01 195.60 590.01 193.75Q590.01 192.53 590.56 191.62Q591.11 190.70 592.10 190.19Q593.08 189.67 594.35 189.67L598.43 189.67L598.43 188.64Q598.43 186.07 595.62 186.07Q594.38 186.07 593.61 186.53Q592.84 186.98 592.79 187.80L590.63 187.80Q590.75 186.24 592.08 185.22Q593.42 184.20 595.62 184.20Q598.02 184.20 599.31 185.35Q600.59 186.50 600.59 188.57L600.59 197.64L598.46 197.64L598.46 195.24L598.41 195.24Q598.22 196.46 597.18 197.17Q596.15 197.88 594.45 197.88M594.98 196.06Q596.56 196.06 597.50 195.29Q598.43 194.52 598.43 193.20L598.43 191.35L594.59 191.35Q593.54 191.35 592.88 191.99Q592.22 192.62 592.22 193.68Q592.22 194.78 592.95 195.42Q593.68 196.06 594.98 196.06" fill="white" fill-opacity="0.7"/>
<path d="M615.16 197.64L611.32 197.64Q609.69 197.64 608.70 196.69Q607.72 195.74 607.72 194.16L607.72 186.41L603.93 186.41L603.93 184.44L607.72 184.44L607.72 180.72L609.88 180.72L609.88 184.44L615.28 184.44L615.28 186.41L609.88 186.41L609.88 194.16Q609.88 194.83 610.28 195.25Q610.67 195.67 611.32 195.67L615.16 195.67" fill="white" fill-opacity="0.7"/>
<path d="M630.52 197.64L619.24 197.64L619.24 195.67L623.92 195.67L623.92 186.41L619.72 186.41L619.72 184.44L626.08 184.44L626.08 195.67L630.52 195.67L630.52 197.64M624.76 182.06Q623.97 182.06 623.51 181.66Q623.06 181.25 623.06 180.55Q623.06 179.83 623.51 179.41Q623.97 178.99 624.76 178.99Q625.55 178.99 626.01 179.41Q626.46 179.83 626.46 180.55Q626.46 181.25 626.01 181.66Q625.55 182.06 624.76 182.06" fill="white" fill-opacity="0.7"/>
<path d="M638.80 197.83Q636.42 197.83 635.02 196.44Q633.62 195.05 633.62 192.55L633.62 189.53Q633.62 187.01 635.01 185.63Q636.40 184.25 638.80 184.25Q641.20 184.25 642.59 185.63Q643.98 187.01 643.98 189.53L643.98 192.55Q643.98 195.05 642.58 196.44Q641.18 197.83 638.80 197.83M638.80 195.91Q640.22 195.91 641.02 195.12Q641.82 194.33 641.82 192.79L641.82 189.29Q641.82 187.75 641.02 186.96Q640.22 186.17 638.80 186.17Q637.41 186.17 636.59 186.96Q635.78 187.75 635.78 189.29L635.78 192.79Q635.78 194.33 636.59 195.12Q637.41 195.91 638.80 195.91" fill="white" fill-opacity="0.7"/>
<path d="M650.37 197.64L648.21 197.64L648.21 184.44L650.37 184.44L650.37 186.96L650.39 186.96Q650.56 185.64 651.47 184.92Q652.38 184.20 653.90 184.20Q655.89 184.20 657.06 185.42Q658.24 186.65 658.24 188.76L658.24 197.64L656.08 197.64L656.08 189.14Q656.08 187.63 655.32 186.83Q654.57 186.02 653.27 186.02Q651.93 186.02 651.15 186.86Q650.37 187.70 650.37 189.24" fill="white" fill-opacity="0.7"/>
<path d="M97.14 136.06L84.37 136.06L66.42 65.98L76.21 65.98L87.82 113.21Q88.98 117.72 89.79 121.90Q90.61 126.08 90.99 128.28Q91.28 126.08 92.19 121.85Q93.10 117.63 94.16 113.12L105.39 65.98L115.18 65.98L97.14 136.06M153.20 136.06L143.70 136.06L143.70 74.62L124.69 74.62L124.69 65.98L172.11 65.98L172.11 74.62L153.20 74.62L153.20 136.06M227.31 136.06L186.51 136.06L186.51 65.98L227.31 65.98L227.31 74.52L195.92 74.52L195.92 95.36L223.95 95.36L223.95 103.61L195.92 103.61L195.92 127.52L227.31 127.52L227.31 136.06M248.82 136.06L238.35 136.06L258.32 100.44L239.41 65.98L250.26 65.98L260.62 85.95Q261.49 87.68 262.40 89.50Q263.31 91.32 263.79 92.28Q264.27 91.32 265.14 89.50Q266 87.68 266.86 85.95L277.33 65.98L287.79 65.98L268.88 99.96L288.85 136.06L278.10 136.06L266.58 114.56Q265.71 112.83 264.85 110.96Q263.98 109.08 263.50 107.93Q263.02 109.08 262.16 110.96Q261.30 112.83 260.34 114.46L248.82 136.06M379.18 137.02Q368.82 137.02 362.67 131.60Q356.53 126.17 356.53 116.67L366.03 116.67Q366.03 122.24 369.58 125.40Q373.14 128.57 379.18 128.57Q384.94 128.57 388.35 125.36Q391.76 122.14 391.76 116.76Q391.76 112.73 389.55 109.71Q387.34 106.68 383.31 105.63L372.94 102.84Q366.13 100.92 362.14 95.88Q358.16 90.84 358.16 83.93Q358.16 78.27 360.70 74Q363.25 69.72 367.86 67.37Q372.46 65.02 378.51 65.02Q384.66 65.02 389.31 67.37Q393.97 69.72 396.56 73.95Q399.15 78.17 399.15 83.74L389.74 83.74Q389.74 79.13 386.62 76.25Q383.50 73.37 378.51 73.37Q373.52 73.37 370.50 76.25Q367.47 79.13 367.47 83.74Q367.47 87.48 369.49 90.03Q371.50 92.57 375.15 93.63L385.81 96.51Q393.01 98.43 397.04 103.85Q401.07 109.28 401.07 116.76Q401.07 122.91 398.38 127.47Q395.70 132.03 390.75 134.52Q385.81 137.02 379.18 137.02M436.40 137.02Q426.51 137.02 421.18 131.55Q415.86 126.08 415.86 116.67L415.86 65.98L425.36 65.98L425.36 116.67Q425.36 122.24 428.10 125.40Q430.83 128.57 436.40 128.57Q441.87 128.57 444.70 125.40Q447.54 122.24 447.54 116.67L447.54 65.98L457.04 65.98L457.04 116.67Q457.04 126.17 451.71 131.60Q446.38 137.02 436.40 137.02M495.34 136.06L473.74 136.06L473.74 65.98LNaN 65.98Q503.70 65.98 509.31 70.83Q514.93 75.68 514.93 84.12Q514.93 89.60 511.52 93.87Q508.11 98.14 502.74 99.10L502.74 99.39Q506.77 99.87 509.89 102.27Q513.01 104.67 514.78 108.36Q516.56 112.06 516.56 116.48Q516.56 125.50 510.85 130.78Q505.14 136.06 495.34 136.06M483.06 74.33L483.06 95.55L493.90 95.55Q499.28 95.55 502.35 92.72Q505.42 89.88 505.42 84.99Q505.42 80 502.35 77.16Q499.28 74.33 NaN 74.33L483.06 74.33M483.06 103.61L483.06 127.71L494.48 127.71Q500.34 127.71 503.70 124.59Q507.06 121.47 507.06 116.09Q507.06 110.52 503.70 107.07Q500.34 103.61 494.48 103.61L483.06 103.61M551.98 137.02Q541.62 137.02 535.47 131.60Q529.33 126.17 529.33 116.67L538.83 116.67Q538.83 122.24 542.38 125.40Q545.94 128.57 551.98 128.57Q557.74 128.57 561.15 125.36Q564.56 122.14 564.56 116.76Q564.56 112.73 562.35 109.71Q560.14 106.68 556.11 105.63L545.74 102.84Q538.93 100.92 534.94 95.88Q530.96 90.84 530.96 83.93Q530.96 78.27 533.50 74Q536.05 69.72 540.66 67.37Q545.26 65.02 551.31 65.02Q557.46 65.02 562.11 67.37Q566.77 69.72 569.36 73.95Q571.95 78.17 571.95 83.74L562.54 83.74Q562.54 79.13 559.42 76.25Q556.30 73.37 551.31 73.37Q546.32 73.37 543.30 76.25Q540.27 79.13 540.27 83.74Q540.27 87.48 542.29 90.03Q544.30 92.57 547.95 93.63L558.61 96.51Q565.81 98.43 569.84 103.85Q573.87 109.28 573.87 116.76Q573.87 122.91 571.18 127.47Q568.50 132.03 563.55 134.52Q558.61 137.02 551.98 137.02M609.97 137.02Q600.27 137.02 594.56 131.60Q588.85 126.17 588.85 116.67L588.85 85.28Q588.85 75.87 594.56 70.44Q600.27 65.02 609.97 65.02Q619.57 65.02 625.28 70.49Q630.99 75.96 630.99 85.28L621.49 85.28Q621.49 79.61 618.42 76.54Q615.34 73.47 609.97 73.47Q604.50 73.47 601.42 76.54Q598.35 79.61 598.35 85.28L598.35 116.67Q598.35 122.43 601.42 125.50Q604.50 128.57 609.97 128.57Q615.34 128.57 618.42 125.50Q621.49 122.43 621.49 116.67L630.99 116.67Q630.99 126.08 625.28 131.55Q619.57 137.02 609.97 137.02M655.95 136.06L646.54 136.06L646.54 65.98L668.24 65.98Q674.67 65.98 679.47 68.52Q684.27 71.07 686.96 75.63Q689.65 80.19 689.65 86.33Q689.65 93.44 686.05 98.52Q682.45 103.61 676.50 105.72L690.61 136.06L680.14 136.06L666.80 106.78L655.95 106.78L655.95 136.06M655.95 74.43L655.95 98.33L668.24 98.33Q673.62 98.33 676.74 95.07Q679.86 91.80 679.86 86.43Q679.86 80.96 676.69 77.69Q673.52 74.43 668.24 74.43L655.95 74.43M743.50 136.06L705.30 136.06L705.30 127.42L719.60 127.42L719.60 74.62L705.30 74.62L705.30 65.98L743.50 65.98L743.50 74.62L729.20 74.62L729.20 127.42L743.50 127.42L743.50 136.06M771.15 136.06L761.65 136.06L761.65 65.98L784.40 65.98Q791.12 65.98 796.02 68.57Q800.91 71.16 803.60 75.82Q806.29 80.48 806.29 86.91Q806.29 93.24 803.60 97.90Q800.91 102.56 795.97 105.15Q791.02 107.74 784.40 107.74L771.15 107.74L771.15 136.06M771.15 74.43L771.15 99.29L784.40 99.29Q789.97 99.29 793.23 95.88Q796.50 92.48 796.50 86.91Q796.50 81.24 793.23 77.84Q789.97 74.43 784.40 74.43L771.15 74.43M844.40 136.06L834.90 136.06L834.90 74.62L815.89 74.62L815.89 65.98L863.31 65.98L863.31 74.62L844.40 74.62L844.40 136.06M916.30 136.06L878.10 136.06L878.10 127.42L892.40 127.42L892.40 74.62L878.10 74.62L878.10 65.98L916.30 65.98L916.30 74.62LNaN 74.62LNaN 127.42L916.30 127.42L916.30 136.06M954.80 137.02Q945.20 137.02 939.63 131.45Q934.06 125.88 934.06 115.71L934.06 86.24Q934.06 76.16 939.63 70.59Q945.20 65.02 954.80 65.02Q964.40 65.02 969.97 70.54Q975.54 76.06 975.54 86.24L975.54 115.71Q975.54 125.88 969.97 131.45Q964.40 137.02 954.80 137.02M954.80 128.57Q960.18 128.57 963.10 125.50Q966.03 122.43 966.03 116.67L966.03 85.28Q966.03 79.61 963.15 76.54Q960.27 73.47 954.80 73.47Q949.33 73.47 946.45 76.54Q943.57 79.61 943.57 85.28L943.57 116.67Q943.57 122.43 946.50 125.50Q949.42 128.57 954.80 128.57M1000.78 136.06L991.86 136.06L991.86 65.98L1004.14 65.98L1025.07 125.12Q1024.78 122.62 1024.54 118.92Q1024.30 115.23 1024.16 111.24Q1024.02 107.26 1024.02 103.71L1024.02 65.98L1033.04 65.98L1033.04 136.06L1020.66 136.06L999.92 76.92Q1000.11 79.42 1000.30 83.02Q1000.50 86.62 1000.64 90.56Q1000.78 94.49 1000.78 97.95L1000.78 136.06M1070.38 137.02Q1060.02 137.02 1053.87 131.60Q1047.73 126.17 1047.73 116.67L1057.23 116.67Q1057.23 122.24 1060.78 125.40Q1064.34 128.57 1070.38 128.57Q1076.14 128.57 1079.55 125.36Q1082.96 122.14 1082.96 116.76Q1082.96 112.73 1080.75 109.71Q1078.54 106.68 1074.51 105.63L1064.14 102.84Q1057.33 100.92 1053.34 95.88Q1049.36 90.84 1049.36 83.93Q1049.36 78.27 1051.90 74Q1054.45 69.72 1059.06 67.37Q1063.66 65.02 1069.71 65.02Q1075.86 65.02 1080.51 67.37Q1085.17 69.72 1087.76 73.95Q1090.35 78.17 1090.35 83.74L1080.94 83.74Q1080.94 79.13 1077.82 76.25Q1074.70 73.37 1069.71 73.37Q1064.72 73.37 1061.70 76.25Q1058.67 79.13 1058.67 83.74Q1058.67 87.48 1060.69 90.03Q1062.70 92.57 1066.35 93.63L1077.01 96.51Q1084.21 98.43 1088.24 103.85Q1092.27 109.28 1092.27 116.76Q1092.27 122.91 1089.58 127.47Q1086.90 132.03 1081.95 134.52Q1077.01 137.02 1070.38 137.02M1170.51 136.06L1160.82 136.06L1178.96 65.98L1191.54 65.98L1209.58 136.06L1199.89 136.06L1195.47 117.82L1174.93 117.82L1170.51 136.06M1181.94 88.92L1176.85 109.95L1193.55 109.95L1188.56 89.02Q1187.12 83.26 1186.26 79.23Q1185.39 75.20 1185.20 73.76Q1185.01 75.20 1184.14 79.23Q1183.28 83.26 1181.94 88.92M1231.95 136.06L1222.45 136.06L1222.45 65.98L1245.20 65.98Q1251.92 65.98 1256.82 68.57Q1261.71 71.16 1264.40 75.82Q1267.09 80.48 1267.09 86.91Q1267.09 93.24 1264.40 97.90Q1261.71 102.56 1256.77 105.15Q1251.82 107.74 1245.20 107.74L1231.95 107.74L1231.95 136.06M1231.95 74.43L1231.95 99.29L1245.20 99.29Q1250.77 99.29 1254.03 95.88Q1257.30 92.48 1257.30 86.91Q1257.30 81.24 1254.03 77.84Q1250.77 74.43 1245.20 74.43L1231.95 74.43M1319.50 136.06L1281.30 136.06L1281.30 127.42L1295.60 127.42L1295.60 74.62L1281.30 74.62L1281.30 65.98L1319.50 65.98L1319.50 74.62L1305.20 74.62L1305.20 127.42L1319.50 127.42L1319.50 136.06M1421.94 136.06L1409.17 136.06L1391.22 65.98L1401.01 65.98L1412.62 113.21Q1413.78 117.72 1414.59 121.90Q1415.41 126.08 1415.79 128.28Q1416.08 126.08 1416.99 121.85Q1417.90 117.63 1418.96 113.12L1430.19 65.98L1439.98 65.98L1421.94 136.06M1495.28 136.06L1452.37 136.06L1452.37 127.32L1476.18 102.17Q1480.78 97.37 1482.75 93.39Q1484.72 89.40 1484.72 85.56Q1484.72 80.09 1481.55 76.78Q1478.38 73.47 1473.01 73.47Q1467.44 73.47 1464.18 76.83Q1460.91 80.19 1460.91 85.95L1451.41 85.95Q1451.60 76.35 1457.50 70.68Q1463.41 65.02 1473.01 65.02Q1482.80 65.02 1488.61 70.59Q1494.42 76.16 1494.42 85.47Q1494.42 90.56 1491.73 96.08Q1489.04 101.60 1482.61 108.22L1463.98 127.42L1495.28 127.42" fill="url(#paint2_linear_0_1)"/>
<g id="Group 1">
<rect id="Rectangle 1" x="26" y="168" width="12" height="184" rx="5" fill="url(#paint3_linear_0_1)" fill-opacity="0.9"/>
</g>
<g id="Group 1_2">
<rect id="Rectangle 2" x="26" y="38" width="12" height="119" rx="5" fill="url(#paint4_linear_0_1)" fill-opacity="0.9"/>
</g>
<ellipse id="Ellipse 1" cx="148.5" cy="573" rx="215.5" ry="214" fill="url(#paint5_linear_0_1)" fill-opacity="0.4"/>
<rect id="Rectangle 3" x="1229" y="48" width="300" height="300" rx="25" fill="#FFFBFB" fill-opacity="0.9"/>
<g id="placeholder-logo"><g transform="translate(1229,48) translate(0.0,60.0) scale(1.2000)"><g fill="#666666">
  <path d="m88.05,27.65c-3.15,4 -3.2,51.2 -0.05,54.35c2.75,2.75 71.7,3.15 74.45,0.45c2.85,-2.9 2.3,-53.85 -0.65,-55.9c-1.95,-1.35 -7.15,-1.55 -36.95,-1.55l-34.7,0l-2.1,2.65zm69.45,3.35c0.65,0 1,8.6 1,23.75l0,23.75l-33,0l-33,0l-0.25,-23c-0.15,-12.6 -0.1,-23.45 0.15,-24.1c0.35,-0.85 8.9,-1.05 32.25,-0.75c17.55,0.2 32.3,0.35 32.85,0.35z"/>
  <path d="m99.15,37.3c-6.85,7.35 4.25,17.35 11.4,10.25c1.35,-1.35 2.45,-3.65 2.45,-5.05c0,-6.45 -9.35,-9.95 -13.85,-5.2z"/>
  <path d="m135,42.5c-0.7,0.85 -5.25,5.15 -10.1,9.6l-8.85,8.1l-3.2,-3.2l-3.15,-3.15l-6.35,6.3c-5.55,5.5 -6.35,6.75 -6.35,10.05l0,3.8l28.5,0l28.5,0l0,-8.6l0,-8.55l-8.15,-7.7c-9.35,-8.85 -9.15,-8.7 -10.85,-6.65zm7.25,15.2c0.95,0.9 1.75,2.9 1.75,4.45c6.35,-5.05 4.75,-7.15 4.9,-11.55c0.95,0 0,0 0,0l-6.65,7.1z"/>
  <path d="m53.65,110.75c0.1,4.8 0.45,8.65 0.75,8.5c0.35,-0.15 1.3,-0.25 2.1,-0.25c1.1,0 1.5,-1.2 1.5,-4.75l0,-4.75l3.25,5c4.9,7.5 6.2,6.75 6.55,-3.75c0.25,-8.15 0.15,-8.75 -1.7,-8.75c-1.65,0 -2.05,0.8 -2.3,4.75l-0.3,4.75l-2.8,-4.75c-4.85,-8.25 -7.25,-6.9 -7.05,4z"/>
  <path d="m91,108.9c0,9.65 0.3,10.1 6.1,10.1c5.8,0 7.15,-2.65 1.65,-3.2l-3.25,-0.3l-0.3,-6.75c-0.25,-5.95 -0.55,-6.75 -2.25,-6.75c-1.75,0 -1.95,0.7 -1.95,6.9z"/>
  <path d="m151,102.45c0,0.25 1,2.15 2.25,4.2c1.2,2.1 2.45,5.8 2.75,8.25c0.65,5.9 4,6.95 4,1.25c0.05,-2.1 1.25,-5.85 2.95,-8.9l2.9,-5.25l-2.5,0c-1.8,0 -2.8,0.85 -3.75,3.1l-1.3,3.05l-1.25,-3.05c-1.1,-2.6 -6.05,-4.8 -6.05,-2.65z"/>
  <path d="m191,107.45c0,9.05 3.4,8.85 4.25,-0.2c0.45,-5 0.35,-5.25 -1.9,-5.25c-2.2,0 -2.35,0.4 -2.35,5.45z"/>
  <path d="m180.8,104.75c-1.3,5.35 0.65,13.6 3.45,14.35c2.3,0.6 2.75,0.4 2.75,-1.2c0,-1.05 -0.45,-1.9 -1,-1.9c-0.55,0 -1,-1.6 -1,-3.5c0,-1.95 0.45,-3.5 1,-3.5c0.55,0 1,-0.7 1,-1.5c0,-0.85 -0.45,-1.5 -1,-1.5c-0.55,0 -1,-0.7 -1,-1.5c0,-2.1 -3.65,-1.9 -4.2,0.25z"/>
  <path d="m71.55,106.55c-2.2,2.25 -2.05,9.7 0.3,11.8c4.5,4.1 10.15,0.75 10.15,-6.1c0,-4.85 -2,-7.25 -6,-7.25c-1.55,0 -3.55,0.7 -4.45,1.55zm6.25,5.8c0.25,3.05 0,3.65 -1.6,3.65c-2.3,0 -3.25,-2.65 -2.05,-5.85c1.25,-3.35 3.3,-2.1 3.65,2.2z"/>
  <path d="m105.75,106.1c-2.5,1.45 -2.45,9.95 0.1,12.25c4.3,3.9 10.15,0.35 10.15,-6.2c0,-6 -5.15,-9.05 -10.25,-6.05zm6.05,6.25c0.25,3.05 0,3.65 -1.6,3.65c-2.3,0 -3.25,-2.65 -2.05,-5.85c1.25,-3.35 3.3,-2.1 3.65,2.2z"/>
  <path d="m119.2,106.2c-3.8,3.8 -0.4,12.55 4.4,11.35c1.9,-0.45 2.45,-0.3 2.15,0.65c-0.25,0.7 -1.55,1.2 -2.85,1.1c-4.05,-0.3 -5.35,0.45 -3.85,2.25c0.85,1.05 2.6,1.45 5.35,1.25l4.1,-0.3l0.3,-8.75l0.3,-8.75l-4.35,0c-2.4,0 -4.9,0.55 -5.55,1.2zm6.6,4.45c0.4,2.85 -2.15,4.85 -3.75,2.95c-0.9,-1.1 -0.9,-2 -0.05,-3.6c1.35,-2.5 3.4,-2.15 3.8,0.65z"/>
  <path d="m133.55,106.55c-2.2,2.25 -2.05,9.7 0.3,11.8c4.5,4.1 10.15,0.75 10.15,-6.1c0,-4.85 -2,-7.25 -6,-7.25c-1.55,0 -3.55,0.7 -4.45,1.55zm6.25,5.8c0.25,3.05 0,3.65 -1.6,3.65c-2.3,0 -3.25,-2.65 -2.05,-5.85c1.25,-3.35 3.3,-2.1 3.65,2.2z"/>
  <path d="m167.65,106.85c-3.9,4.3 -0.75,13.15 4.7,13.15c2.4,0 5.65,-2.75 5.65,-4.85c0,-1.4 -2.65,-1.55 -3.5,-0.15c-0.95,1.55 -4.5,1.15 -4.5,-0.5c0,-1.1 1.1,-1.5 4,-1.5c3.15,0 4,-0.35 4,-1.8c0,-5.3 -6.85,-8.25 -10.35,-4.35z"/>
  <path d="m191,117.5c0,2.15 0.4,2.6 2.25,2.3c1.5,-0.2 2.25,-1 2.25,-2.3c0,-1.3 -0.75,-2.1 -2.25,-2.3c-1.85,-0.3 -2.25,0.15 -2.25,2.3z"/>
 </g></g></g>
</g>
<defs>
<linearGradient id="paint0_linear_0_1" x1="0" y1="198" x2="1584" y2="198" gradientUnits="userSpaceOnUse">
<stop stop-color="#3D052C"/>
<stop offset="1"/>
</linearGradient>
<linearGradient id="paint1_linear_0_1" x1="323" y1="-224" x2="323" y2="352" gradientUnits="userSpaceOnUse">
<stop stop-color="#28F6F2" stop-opacity="0.4"/>
<stop offset="1" stop-color="#17908E" stop-opacity="0.7"/>
</linearGradient>
<linearGradient id="paint2_linear_0_1" x1="148.5" y1="38" x2="148.5" y2="140" gradientUnits="userSpaceOnUse">
<stop stop-color="white"/>
<stop offset="1" stop-color="#999999"/>
</linearGradient>
<linearGradient id="paint3_linear_0_1" x1="38" y1="260" x2="26" y2="260" gradientUnits="userSpaceOnUse">
<stop stop-color="#D9D9D9"/>
<stop offset="1" stop-color="#737373"/>
</linearGradient>
<linearGradient id="paint4_linear_0_1" x1="38" y1="97.5" x2="26" y2="97.5" gradientUnits="userSpaceOnUse">
<stop stop-color="#D9D9D9"/>
<stop offset="1" stop-color="#737373"/>
</linearGradient>
<linearGradient id="paint5_linear_0_1" x1="27.5" y1="434.5" x2="148.5" y2="787" gradientUnits="userSpaceOnUse">
<stop stop-color="#2E21BC"/>
<stop offset="1" stop-color="#150F56"/>
</linearGradient>
<clipPath id="clip0_0_1">
<rect width="1584" height="396" fill="white"/>
</clipPath>
</defs>
</svg>
